<svg width="235" height="86" viewBox="0 0 235 86" fill="none" xmlns="http://www.w3.org/2000/svg">
<path d="M98.6 22.2C98.6 26.6667 97.6333 31.2333 95.7 35.9C93.7667 40.5667 90.8 45.4 86.8 50.4C83.1333 55.0667 78.9333 59.3667 74.2 63.3C69.5333 67.1667 64.3667 70.7 58.7 73.9C52.7667 77.1667 46.9667 79.6 41.3 81.2C35.7 82.8 30.2 83.6667 24.8 83.8C17.7333 83.8 11.9 81.5 7.3 76.9C2.7 72.5 0.366667 66.8333 0.3 59.9C0.3 54.7 1.06667 49.7 2.6 44.9C4.2 40.1 6.63333 35.4 9.9 30.8C12.6333 27 15.7333 23.5 19.2 20.3C22.6667 17.1 26.6333 14.2333 31.1 11.7C35.0333 9.36666 38.7667 7.63333 42.3 6.49999C45.8333 5.3 49.2333 4.6 52.5 4.4V5.7C49.2333 5.36666 44.0333 7.16666 36.9 11.1C32.5667 13.4333 28.6333 16 25.1 18.8C21.6333 21.5333 18.5 24.6333 15.7 28.1C12.1 32.3 9.43333 36.6667 7.7 41.2C6.03333 45.7333 5.16667 50.4333 5.1 55.3C5.1 62.5667 7.33333 68.3333 11.8 72.6C14.1333 74.7333 16.7667 76.3667 19.7 77.5C22.6333 78.5667 26 79.1667 29.8 79.3C39 79.3 48.6667 76.4667 58.8 70.8C63.8 68.0667 68.3 65.0333 72.3 61.7C76.3 58.3 79.9333 54.5 83.2 50.3C89.8 41.7 93.1667 33.1 93.3 24.5C93.3 19.1 91.1333 14.4667 86.8 10.6C82.4667 6.73333 77.2 4.8 71 4.8C68.0667 4.8 64.8667 5.4 61.4 6.6C57.9333 7.73333 54.1667 9.53333 50.1 12C41.6333 16.9333 34.7333 23 29.4 30.2C29 30.6 28.3333 30.7 27.4 30.5C37.2 17.9 46.6333 9.56666 55.7 5.49999C57.9667 4.5 59.8 3.73333 61.2 3.19999C62.6 2.59999 63.6333 2.2 64.3 2C67.1 1.06666 70.2333 0.599998 73.7 0.599998C81.7 0.599998 87.8667 2.43333 92.2 6.1C96.4667 9.76667 98.6 15.1333 98.6 22.2ZM130.741 82.5C126.941 82.5 125.041 80.5 125.041 76.5C125.041 75.7667 125.175 74.9 125.441 73.9C125.708 72.9 126.008 72.1333 126.341 71.6C125.141 72.3333 123.841 72.9667 122.441 73.5C121.041 73.9667 119.641 74.4 118.241 74.8C116.841 75.2 115.441 75.5667 114.041 75.9C112.708 76.2333 111.441 76.6 110.241 77C109.641 77.7333 109.008 78.5 108.341 79.3C107.608 80.0333 106.941 80.7 106.341 81.3C105.675 81.9 105.108 82.4 104.641 82.8C104.175 83.2 103.875 83.4 103.741 83.4C103.675 83.4 103.441 83.2667 103.041 83C102.641 82.8 102.441 82.5667 102.441 82.3C102.441 81.8333 102.741 81.0667 103.341 80C103.941 78.9333 104.908 77.4667 106.241 75.6C107.308 74 108.141 72.7 108.741 71.7C109.341 70.7 109.808 69.8667 110.141 69.2C110.475 68.5333 110.775 67.9667 111.041 67.5C111.241 66.9667 111.575 66.4 112.041 65.8C112.308 65.4 112.841 65.0667 113.641 64.8C114.441 64.5333 115.008 64.3333 115.341 64.2C116.075 64.2 116.575 64.4 116.841 64.8C117.175 65.2 117.241 65.7 117.041 66.3C116.775 67.0333 116.075 68.0667 114.941 69.4C113.808 70.6667 112.708 72.3667 111.641 74.5C112.641 74.1667 113.808 73.8 115.141 73.4C116.541 73 117.975 72.5667 119.441 72.1C120.908 71.6333 122.341 71.1667 123.741 70.7C125.141 70.1667 126.375 69.6333 127.441 69.1C128.708 67.5 130.008 66.2 131.341 65.2C132.741 64.2 133.841 63.7 134.641 63.7C134.975 63.7 135.241 64.1333 135.441 65C135.441 65 134.408 66.2333 132.341 68.7C130.408 71.1 129.408 73.3667 129.341 75.5C129.341 77.9 131.008 79.2333 134.341 79.5C135.075 79.5667 136.108 79.5 137.441 79.3C138.841 79.1 140.441 78.7333 142.241 78.2C144.108 77.6 146.108 76.8333 148.241 75.9C150.375 74.9667 152.541 73.7667 154.741 72.3C154.875 72.3 155.041 72.3 155.241 72.3C155.441 72.2333 155.608 72.4 155.741 72.8C155.875 73 155.875 73.2 155.741 73.4C155.608 73.6 155.475 73.7667 155.341 73.9C150.275 76.9 145.708 79.1 141.641 80.5C137.641 81.8333 134.008 82.5 130.741 82.5ZM199.928 72.5C200.061 73.0333 199.928 73.4 199.528 73.6C194.928 76.4667 190.495 78.9333 186.228 81C182.028 83 178.361 84 175.228 84C171.628 84 169.728 81.3 169.528 75.9C168.928 76.2333 167.995 76.7667 166.728 77.5C165.528 78.1667 164.228 78.8667 162.828 79.6C161.495 80.3333 160.128 80.9667 158.728 81.5C157.395 82.1 156.295 82.4333 155.428 82.5C154.161 82.6333 153.028 82.4667 152.028 82C150.961 81.5333 150.295 80.5667 150.028 79.1C150.028 76.1667 152.761 72.5667 158.228 68.3C161.028 66.2333 163.695 64.6667 166.228 63.6C168.761 62.5333 170.895 62 172.628 62C175.095 61.9333 176.361 62.5333 176.428 63.8C176.428 65 175.995 65.9667 175.128 66.7C174.461 67.3 173.628 67.6 172.628 67.6C172.561 67.5333 172.495 67.4 172.428 67.2C172.361 67.0667 172.295 66.9333 172.228 66.8C172.161 66.6 172.061 66.3667 171.928 66.1C171.528 65.1 170.728 64.5667 169.528 64.5C166.928 64.5 163.895 65.9667 160.428 68.9C157.095 71.7 155.428 74.2333 155.428 76.5C155.428 77.0333 155.528 77.5333 155.728 78C155.928 78.4 156.295 78.6333 156.828 78.7C158.695 78.8333 160.528 78.5333 162.328 77.8C164.195 77.0667 166.161 76 168.228 74.6C169.095 74 170.595 72.5333 172.728 70.2C174.061 68.6 175.228 67.8333 176.228 67.9C177.028 67.9 177.428 68.2333 177.428 68.9C177.428 69.5 176.861 70.8 175.728 72.8C174.661 74.6667 174.128 76.0333 174.128 76.9C174.128 79.3667 175.328 80.6333 177.728 80.7C179.861 80.7 182.028 80.3667 184.228 79.7C186.428 79.0333 188.495 78.2333 190.428 77.3C192.361 76.3667 194.061 75.4667 195.528 74.6C197.061 73.6667 198.161 72.9667 198.828 72.5C199.028 72.3 199.228 72.1667 199.428 72.1C199.628 71.9667 199.795 72.1 199.928 72.5ZM232.985 72.3C233.452 71.8333 233.818 71.9333 234.085 72.6C234.085 73.2 233.918 73.5667 233.585 73.7C229.118 76.7667 224.518 79.4333 219.785 81.7C215.118 83.9667 210.252 85.1333 205.185 85.2C203.852 85.2 202.618 85.0333 201.485 84.7C200.285 84.3667 199.252 83.8667 198.385 83.2C197.518 82.5333 196.852 81.7 196.385 80.7C195.918 79.6333 195.752 78.4 195.885 77C196.085 75.2667 196.652 73.4667 197.585 71.6C198.518 69.6667 200.185 67.7333 202.585 65.8C203.785 64.8 205.052 63.9 206.385 63.1C207.718 62.3 209.052 61.6 210.385 61C211.785 60.4 213.118 59.9333 214.385 59.6C215.652 59.2667 216.818 59.0667 217.885 59C220.018 59 221.152 60 221.285 62C221.285 62.9333 220.885 63.8667 220.085 64.8C219.352 65.7333 218.418 66.6 217.285 67.4C216.152 68.1333 214.918 68.7667 213.585 69.3C212.252 69.8333 211.052 70.1333 209.985 70.2C209.252 70.2 208.718 70.1 208.385 69.9C208.118 69.7 207.918 69.4333 207.785 69.1C207.385 68.1667 207.518 67.4667 208.185 67C208.918 66.4667 209.785 66.2 210.785 66.2C210.918 66.2 211.252 66.2667 211.785 66.4C212.318 66.4667 213.052 66.5667 213.985 66.7C214.385 66.7667 214.852 66.6667 215.385 66.4C215.985 66.1333 216.485 65.8 216.885 65.4C217.352 65 217.685 64.5667 217.885 64.1C218.085 63.5667 218.085 63.1 217.885 62.7C217.552 62.2333 217.252 61.9667 216.985 61.9C216.718 61.7667 216.152 61.7 215.285 61.7C214.018 61.7 212.485 62.1 210.685 62.9C208.952 63.7 207.185 64.9 205.385 66.5C201.985 69.7667 200.285 72.6333 200.285 75.1C200.285 77.3667 201.018 79.0667 202.485 80.2C204.018 81.2667 206.185 81.8 208.985 81.8C211.052 81.8 213.552 81.3667 216.485 80.5C219.485 79.5667 222.418 78.4 225.285 77C226.218 76.5333 226.985 76.1 227.585 75.7C228.252 75.3 228.852 74.9333 229.385 74.6C229.918 74.2667 230.452 73.9333 230.985 73.6C231.518 73.2 232.185 72.7667 232.985 72.3Z" fill="#4F4C18"/>
</svg>
