<svg width="43" height="25" viewBox="0 0 43 25" fill="none" xmlns="http://www.w3.org/2000/svg">
<path d="M14.65 11.05C16.3167 11.5167 17.6 12.2833 18.5 13.35C19.4 14.4167 19.85 15.7333 19.85 17.3C19.85 19.4333 19.0167 21.1 17.35 22.3C15.6833 23.5 13.3833 24.1 10.45 24.1H0.5V23.8L1.15 23.55C1.65 23.35 2.05 23.0333 2.35 22.6C2.65 22.1667 2.8 21.6833 2.8 21.15V3C2.8 2.46667 2.65 1.98333 2.35 1.55C2.05 1.11667 1.65 0.799999 1.15 0.599999L0.5 0.349999V0.0499984H9.5C10.6333 0.0499984 11.7 0.133332 12.7 0.299998C13.7333 0.433332 14.6167 0.716665 15.35 1.15C16.0833 1.55 16.6667 2.15 17.1 2.95C17.5333 3.75 17.75 4.8 17.75 6.1C17.75 7.16667 17.4667 8.11667 16.9 8.95C16.3667 9.75 15.6167 10.4167 14.65 10.95V11.05ZM6.2 10.45H9.45C9.98333 10.45 10.5333 10.4 11.1 10.3C11.6667 10.2 12.1833 10 12.65 9.7C13.1167 9.4 13.5 8.96667 13.8 8.4C14.1 7.83333 14.25 7.08333 14.25 6.15C14.25 5.21667 14.1 4.46667 13.8 3.9C13.5 3.33333 13.1167 2.9 12.65 2.6C12.1833 2.3 11.6667 2.1 11.1 2C10.5333 1.9 9.98333 1.85 9.45 1.85H6.2V10.45ZM10.45 22.35C11.15 22.35 11.85 22.2833 12.55 22.15C13.25 22.0167 13.8833 21.7667 14.45 21.4C15.0167 21.0333 15.4667 20.5167 15.8 19.85C16.1667 19.1833 16.35 18.3167 16.35 17.25C16.35 15.4167 15.9 14.1167 15 13.35C14.1 12.55 12.5667 12.15 10.4 12.15H6.2V22.3H10.4L10.45 22.35ZM37.6969 11.05C39.3635 11.5167 40.6469 12.2833 41.5469 13.35C42.4469 14.4167 42.8969 15.7333 42.8969 17.3C42.8969 19.4333 42.0635 21.1 40.3969 22.3C38.7302 23.5 36.4302 24.1 33.4969 24.1H23.5469V23.8L24.1969 23.55C24.6969 23.35 25.0969 23.0333 25.3969 22.6C25.6969 22.1667 25.8469 21.6833 25.8469 21.15V3C25.8469 2.46667 25.6969 1.98333 25.3969 1.55C25.0969 1.11667 24.6969 0.799999 24.1969 0.599999L23.5469 0.349999V0.0499984H32.5469C33.6802 0.0499984 34.7469 0.133332 35.7469 0.299998C36.7802 0.433332 37.6635 0.716665 38.3969 1.15C39.1302 1.55 39.7135 2.15 40.1469 2.95C40.5802 3.75 40.7969 4.8 40.7969 6.1C40.7969 7.16667 40.5135 8.11667 39.9469 8.95C39.4135 9.75 38.6635 10.4167 37.6969 10.95V11.05ZM29.2469 10.45H32.4969C33.0302 10.45 33.5802 10.4 34.1469 10.3C34.7135 10.2 35.2302 10 35.6969 9.7C36.1635 9.4 36.5469 8.96667 36.8469 8.4C37.1469 7.83333 37.2969 7.08333 37.2969 6.15C37.2969 5.21667 37.1469 4.46667 36.8469 3.9C36.5469 3.33333 36.1635 2.9 35.6969 2.6C35.2302 2.3 34.7135 2.1 34.1469 2C33.5802 1.9 33.0302 1.85 32.4969 1.85H29.2469V10.45ZM33.4969 22.35C34.1969 22.35 34.8969 22.2833 35.5969 22.15C36.2969 22.0167 36.9302 21.7667 37.4969 21.4C38.0635 21.0333 38.5135 20.5167 38.8469 19.85C39.2135 19.1833 39.3969 18.3167 39.3969 17.25C39.3969 15.4167 38.9469 14.1167 38.0469 13.35C37.1469 12.55 35.6135 12.15 33.4469 12.15H29.2469V22.3H33.4469L33.4969 22.35Z" fill="#434014"/>
</svg>
