<svg width="512" height="103" viewBox="0 0 512 103" fill="none" xmlns="http://www.w3.org/2000/svg">
<path d="M74.8 56.2C79.9333 59.5333 86.8 63.5333 95.4 68.2C104 72.8667 114.433 78.3 126.7 84.5L119.8 86.8C116.067 84.9333 112.5 83.1333 109.1 81.4C105.7 79.6667 102.467 77.9667 99.4 76.3C91.9333 72.5 85.6333 69.1333 80.5 66.2C75.4333 63.2667 71.4 60.7333 68.4 58.6C64.4 60.7333 60.1 62.6333 55.5 64.3C50.9667 65.9 46.1 67.2333 40.9 68.3C36.9 72.9 33.4667 76.8 30.6 80C27.7333 83.1333 25.3667 85.5667 23.5 87.3C18.9667 91.7 12.7333 96.8667 4.8 102.8C4.6 102.533 4.5 102.1 4.5 101.5C4.5 101.1 5.7 99.9333 8.1 98C10.0333 96.5333 11.9 95.0333 13.7 93.5C15.5 92.0333 17.2667 90.5 19 88.9C22 86.1667 25 83.1667 28 79.9C31.0667 76.5667 34.2667 72.9333 37.6 69C34 69.5333 30.9 69.9333 28.3 70.2C25.7 70.4 23.5333 70.5 21.8 70.5C18.2 70.5 15.0333 70.1333 12.3 69.4C9.63333 68.6667 7.33333 67.4667 5.4 65.8C2.33333 63.2667 0.766667 59.9333 0.7 55.8C0.7 51.2667 3.4 47.4 8.8 44.2C14.2667 41.0667 20.9667 39.5 28.9 39.5C30.6333 39.5 32.4333 39.6333 34.3 39.9C36.1667 40.1 38.1 40.4667 40.1 41C42.7667 41.6 47.7667 43.1 55.1 45.5L82.3 12.2L83.4 14.5C80.4667 18.1 76.9 22.5667 72.7 27.9C68.5 33.2333 63.5 39.5 57.7 46.7C59.0333 47.4333 60.8 48.4333 63 49.7C65.2667 50.9 68.0333 52.4333 71.3 54.3C75.7667 51.9667 80.5333 49.1667 85.6 45.9C90.7333 42.6333 96.2667 38.8333 102.2 34.5C107.4 30.7 112.233 27 116.7 23.4C121.167 19.7333 125.367 16.1 129.3 12.5C129.833 11.9667 130.8 11.0333 132.2 9.69999C133.6 8.3 135.433 6.4 137.7 4C140.1 1.73333 141.767 0.499997 142.7 0.299996C143.3 0.299996 144.067 0.566663 145 1.1C145.667 1.56666 146.033 2.03333 146.1 2.5C146.1 5.43333 138.833 12.6333 124.3 24.1C108.5 36.3 92 47 74.8 56.2ZM54.5 50.7C53.1 52.5 51.5333 54.5333 49.8 56.8C48.0667 59 46.1333 61.4 44 64C48.1333 63.4 55.3667 61.1 65.7 57.1L54.5 50.7ZM52.1 50C41.5 45.2 31.8 42.8 23 42.8C17.8667 42.8 13.3667 43.9667 9.5 46.3C5.83333 48.5667 4 51.3667 4 54.7C4 57.8333 5.83333 60.5667 9.5 62.9C13.1667 65.1 17.8 66.2 23.4 66.2C24.2667 66.2 26.1 66.1 28.9 65.9C31.7 65.7 35.5667 65.3667 40.5 64.9L52.1 50ZM178.575 72.6C178.575 72.8667 178.542 73.1 178.475 73.3C178.475 73.4333 178.375 73.6 178.175 73.8C174.508 76.6 171.175 78.4667 168.175 79.4C165.175 80.3333 162.375 80.8667 159.775 81C158.042 81.0667 156.375 80.4333 154.775 79.1C152.842 80.7667 150.842 82.0667 148.775 83C146.775 84 144.608 84.5667 142.275 84.7C140.808 84.7667 139.608 84.4333 138.675 83.7C137.675 83.0333 137.175 82 137.175 80.6C137.175 77.0667 139.742 73.0667 144.875 68.6C147.408 66.4667 149.775 64.9 151.975 63.9C154.175 62.9 156.075 62.4 157.675 62.4C161.075 62.4 162.775 64 162.775 67.2C162.775 68.9333 162.308 70.6667 161.375 72.4C160.442 74.1333 158.908 75.8667 156.775 77.6C157.642 78.4667 158.742 78.9 160.075 78.9C161.008 78.9 162.042 78.8333 163.175 78.7C164.308 78.5667 165.575 78.3 166.975 77.9C168.375 77.4333 169.942 76.7667 171.675 75.9C173.408 74.9667 175.342 73.7333 177.475 72.2C177.675 72.0667 177.908 72 178.175 72C178.442 72 178.575 72.2 178.575 72.6ZM161.275 66.4C161.275 65.8 161.142 65.3667 160.875 65.1C160.675 64.8333 160.208 64.6667 159.475 64.6C158.075 64.6 156.808 65.2667 155.675 66.6C154.608 67.8667 154.008 69.3 153.875 70.9C153.875 73.3667 154.342 75 155.275 75.8C159.275 72.6 161.275 69.4667 161.275 66.4ZM153.775 77.4C153.108 76.7333 152.642 75.9333 152.375 75C152.108 74.0667 151.975 73.1 151.975 72.1C152.042 71.1 152.208 70.1 152.475 69.1C152.808 68.0333 153.175 67.0333 153.575 66.1C152.375 66.3667 151.075 66.9 149.675 67.7C148.342 68.5 147.075 69.4333 145.875 70.5C144.742 71.5667 143.775 72.7333 142.975 74C142.175 75.2 141.675 76.4 141.475 77.6C141.342 78.8 141.575 79.7 142.175 80.3C142.775 80.9 143.575 81.2333 144.575 81.3C147.375 81.3 150.442 80 153.775 77.4ZM199.613 82.5C195.813 82.5 193.913 80.5 193.913 76.5C193.913 75.7667 194.046 74.9 194.313 73.9C194.579 72.9 194.879 72.1333 195.213 71.6C194.013 72.3333 192.713 72.9667 191.313 73.5C189.913 73.9667 188.513 74.4 187.113 74.8C185.713 75.2 184.313 75.5667 182.913 75.9C181.579 76.2333 180.312 76.6 179.112 77C178.512 77.7333 177.879 78.5 177.212 79.3C176.479 80.0333 175.812 80.7 175.212 81.3C174.546 81.9 173.979 82.4 173.512 82.8C173.046 83.2 172.746 83.4 172.612 83.4C172.546 83.4 172.312 83.2667 171.912 83C171.512 82.8 171.312 82.5667 171.312 82.3C171.312 81.8333 171.612 81.0667 172.212 80C172.812 78.9333 173.779 77.4667 175.112 75.6C176.179 74 177.012 72.7 177.612 71.7C178.212 70.7 178.679 69.8667 179.012 69.2C179.346 68.5333 179.646 67.9667 179.912 67.5C180.112 66.9667 180.446 66.4 180.913 65.8C181.179 65.4 181.713 65.0667 182.513 64.8C183.313 64.5333 183.879 64.3333 184.213 64.2C184.946 64.2 185.446 64.4 185.713 64.8C186.046 65.2 186.113 65.7 185.913 66.3C185.646 67.0333 184.946 68.0667 183.813 69.4C182.679 70.6667 181.579 72.3667 180.512 74.5C181.513 74.1667 182.679 73.8 184.013 73.4C185.413 73 186.846 72.5667 188.313 72.1C189.779 71.6333 191.213 71.1667 192.613 70.7C194.013 70.1667 195.246 69.6333 196.313 69.1C197.579 67.5 198.879 66.2 200.213 65.2C201.613 64.2 202.713 63.7 203.513 63.7C203.846 63.7 204.113 64.1333 204.313 65C204.313 65 203.279 66.2333 201.213 68.7C199.279 71.1 198.279 73.3667 198.213 75.5C198.213 77.9 199.879 79.2333 203.213 79.5C203.946 79.5667 204.979 79.5 206.313 79.3C207.713 79.1 209.313 78.7333 211.113 78.2C212.979 77.6 214.979 76.8333 217.113 75.9C219.246 74.9667 221.413 73.7667 223.613 72.3C223.746 72.3 223.913 72.3 224.113 72.3C224.313 72.2333 224.479 72.4 224.613 72.8C224.746 73 224.746 73.2 224.613 73.4C224.479 73.6 224.346 73.7667 224.213 73.9C219.146 76.9 214.579 79.1 210.513 80.5C206.513 81.8333 202.879 82.5 199.613 82.5ZM294.799 73.5C294.866 73.7 294.833 73.9333 294.699 74.2C294.633 74.4 294.499 74.5 294.299 74.5C290.966 76.2333 288.133 77.6667 285.799 78.8C283.466 79.8667 281.433 80.7 279.699 81.3C278.033 81.9667 276.533 82.4333 275.199 82.7C273.933 83.0333 272.666 83.2 271.399 83.2C267.599 83.3333 265.633 81.4667 265.499 77.6C265.499 76.2667 265.666 74.9667 265.999 73.7C266.333 72.4333 266.866 71.1333 267.599 69.8C267.133 69.8 266.433 70.0333 265.499 70.5C264.633 70.9667 263.766 71.4333 262.899 71.9C259.766 73.3 256.899 74.9 254.299 76.7C251.766 78.4333 249.599 79.8333 247.799 80.9C244.666 82.6333 242.766 83.5 242.099 83.5C240.766 83.5 240.099 82.9 240.099 81.7C240.099 80.6333 240.999 78.9 242.799 76.5C243.933 75.1667 245.033 73.8667 246.099 72.6C247.166 71.2667 248.299 69.9 249.499 68.5C241.833 73.3 235.966 76.9 231.899 79.3C227.833 81.7 225.599 82.9333 225.199 83C224.133 83 223.599 82.5667 223.599 81.7C223.999 81.3 224.466 80.7667 224.999 80.1C225.466 79.5667 226.066 78.9333 226.799 78.2C227.466 77.4 228.266 76.5 229.199 75.5C231.133 73.4333 232.633 71.7 233.699 70.3C234.766 68.8333 235.199 67.8333 234.999 67.3C234.933 67.0333 234.699 66.9333 234.299 67C233.899 67 233.633 67.0667 233.499 67.2C233.299 67.2667 232.999 67.3667 232.599 67.5C232.199 67.5667 231.799 67.6667 231.399 67.8C230.999 67.8667 230.633 67.9 230.299 67.9C229.966 67.8333 229.766 67.6667 229.699 67.4C229.566 67.1333 229.766 66.7667 230.299 66.3C230.833 65.8333 231.499 65.3667 232.299 64.9C233.099 64.3667 233.899 63.9333 234.699 63.6C235.566 63.2 236.233 62.9667 236.699 62.9C237.833 62.9 238.733 63.1333 239.399 63.6C240.133 64.0667 240.299 65.0667 239.899 66.6C239.766 67.6667 239.099 68.9667 237.899 70.5C236.699 72.0333 235.433 73.6 234.099 75.2C238.699 72.4 243.399 69.6 248.199 66.8C250.599 65.4 252.366 64.7 253.499 64.7C255.233 64.7 256.099 65.3333 256.099 66.6C256.099 67.5333 255.033 69.2 252.899 71.6C251.633 73 250.599 74.2 249.799 75.2C248.999 76.2 248.399 77.0667 247.999 77.8C257.799 71.8667 264.033 68.2667 266.699 67C270.233 65.2667 272.833 64.3667 274.499 64.3C274.966 64.3 275.199 64.7 275.199 65.5C274.999 65.8333 274.766 66.2 274.499 66.6C274.233 66.9333 273.933 67.3667 273.599 67.9C273.333 68.4333 272.966 69.0667 272.499 69.8C270.766 72.5333 269.899 74.7667 269.899 76.5C269.899 79.1 271.133 80.4333 273.599 80.5C274.599 80.5 275.566 80.4333 276.499 80.3C277.499 80.1 278.699 79.7333 280.099 79.2C281.499 78.6667 283.266 77.9333 285.399 77C287.533 76 290.299 74.6667 293.699 73C293.833 72.9333 293.999 72.9 294.199 72.9C294.466 72.9 294.666 73.1 294.799 73.5ZM338.135 72.5C338.268 73.0333 338.135 73.4 337.735 73.6C333.135 76.4667 328.702 78.9333 324.435 81C320.235 83 316.568 84 313.435 84C309.835 84 307.935 81.3 307.735 75.9C307.135 76.2333 306.202 76.7667 304.935 77.5C303.735 78.1667 302.435 78.8667 301.035 79.6C299.702 80.3333 298.335 80.9667 296.935 81.5C295.602 82.1 294.502 82.4333 293.635 82.5C292.368 82.6333 291.235 82.4667 290.235 82C289.168 81.5333 288.502 80.5667 288.235 79.1C288.235 76.1667 290.968 72.5667 296.435 68.3C299.235 66.2333 301.902 64.6667 304.435 63.6C306.968 62.5333 309.102 62 310.835 62C313.302 61.9333 314.568 62.5333 314.635 63.8C314.635 65 314.202 65.9667 313.335 66.7C312.668 67.3 311.835 67.6 310.835 67.6C310.768 67.5333 310.702 67.4 310.635 67.2C310.568 67.0667 310.502 66.9333 310.435 66.8C310.368 66.6 310.268 66.3667 310.135 66.1C309.735 65.1 308.935 64.5667 307.735 64.5C305.135 64.5 302.102 65.9667 298.635 68.9C295.302 71.7 293.635 74.2333 293.635 76.5C293.635 77.0333 293.735 77.5333 293.935 78C294.135 78.4 294.502 78.6333 295.035 78.7C296.902 78.8333 298.735 78.5333 300.535 77.8C302.402 77.0667 304.368 76 306.435 74.6C307.302 74 308.802 72.5333 310.935 70.2C312.268 68.6 313.435 67.8333 314.435 67.9C315.235 67.9 315.635 68.2333 315.635 68.9C315.635 69.5 315.068 70.8 313.935 72.8C312.868 74.6667 312.335 76.0333 312.335 76.9C312.335 79.3667 313.535 80.6333 315.935 80.7C318.068 80.7 320.235 80.3667 322.435 79.7C324.635 79.0333 326.702 78.2333 328.635 77.3C330.568 76.3667 332.268 75.4667 333.735 74.6C335.268 73.6667 336.368 72.9667 337.035 72.5C337.235 72.3 337.435 72.1667 337.635 72.1C337.835 71.9667 338.002 72.1 338.135 72.5ZM389.392 72.2C389.459 72.5333 389.292 72.9 388.892 73.3C386.092 75.5667 383.459 77.3333 380.992 78.6C378.592 79.8 376.259 80.7 373.992 81.3C371.726 81.9 369.559 82.2667 367.492 82.4C365.426 82.5333 363.392 82.6 361.392 82.6C360.259 82.6 358.759 82.4 356.892 82C355.092 81.6667 352.926 81.0667 350.392 80.2C347.859 79.3333 345.892 78.7333 344.492 78.4C343.159 78 342.292 77.7667 341.892 77.7C339.292 77.7 335.892 79.1333 331.692 82C330.426 82.9333 329.192 83.8333 327.992 84.7C326.726 85.5667 325.426 86.4667 324.092 87.4L322.192 87.1C323.259 85.8333 324.292 84.7 325.292 83.7C326.226 82.7667 327.359 81.6 328.692 80.2C329.959 78.7333 331.526 76.9 333.392 74.7C335.192 72.5 337.559 69.5333 340.492 65.8C341.492 64.4667 342.226 63.4 342.692 62.6C343.226 61.7333 343.592 61.0333 343.792 60.5C344.059 59.9667 344.226 59.4667 344.292 59C344.426 58.5333 344.592 58 344.792 57.4C345.326 55.5333 346.126 54.0667 347.192 53C348.259 51.8667 349.259 51.0667 350.192 50.6C350.926 50.2667 351.659 50.2333 352.392 50.5C353.192 50.7667 353.559 51.4667 353.492 52.6C352.892 53.6667 351.992 55 350.792 56.6C349.659 58.2 348.359 59.9 346.892 61.7C345.426 63.5 343.926 65.3 342.392 67.1C340.926 68.8333 339.559 70.4333 338.292 71.9C337.026 73.3667 335.992 74.5667 335.192 75.5C334.326 76.4333 333.859 76.9333 333.792 77C336.059 75.8 338.359 74.5667 340.692 73.3C343.026 72.0333 345.392 70.7333 347.792 69.4C352.259 67.0667 356.159 65.3667 359.492 64.3C362.892 63.1667 365.759 62.5667 368.092 62.5C370.359 62.5 371.592 63.3667 371.792 65.1C371.792 66.5667 371.092 67.3 369.692 67.3C368.892 67.3 367.959 67.2 366.892 67C365.892 66.8 365.026 66.6333 364.292 66.5C360.159 66.5 355.959 67.4667 351.692 69.4C350.359 70.1333 349.192 70.8 348.192 71.4C347.192 72 346.359 72.6333 345.692 73.3C350.292 75.1667 354.259 76.4667 357.592 77.2C360.926 77.9333 363.659 78.4667 365.792 78.8C366.592 78.9333 367.626 79.0667 368.892 79.2C370.159 79.3333 371.726 79.2667 373.592 79C375.459 78.6667 377.592 78 379.992 77C382.392 75.9333 385.159 74.2667 388.292 72C388.492 71.8667 388.692 71.8 388.892 71.8C389.159 71.7333 389.326 71.8667 389.392 72.2ZM458.471 73.5C458.538 73.7 458.504 73.9333 458.371 74.2C458.304 74.4 458.171 74.5 457.971 74.5C454.638 76.2333 451.804 77.6667 449.471 78.8C447.138 79.8667 445.104 80.7 443.371 81.3C441.704 81.9667 440.204 82.4333 438.871 82.7C437.604 83.0333 436.338 83.2 435.071 83.2C431.271 83.3333 429.304 81.4667 429.171 77.6C429.171 76.2667 429.338 74.9667 429.671 73.7C430.004 72.4333 430.538 71.1333 431.271 69.8C430.804 69.8 430.104 70.0333 429.171 70.5C428.304 70.9667 427.438 71.4333 426.571 71.9C423.438 73.3 420.571 74.9 417.971 76.7C415.438 78.4333 413.271 79.8333 411.471 80.9C408.338 82.6333 406.438 83.5 405.771 83.5C404.438 83.5 403.771 82.9 403.771 81.7C403.771 80.6333 404.671 78.9 406.471 76.5C407.604 75.1667 408.704 73.8667 409.771 72.6C410.838 71.2667 411.971 69.9 413.171 68.5C405.504 73.3 399.638 76.9 395.571 79.3C391.504 81.7 389.271 82.9333 388.871 83C387.804 83 387.271 82.5667 387.271 81.7C387.671 81.3 388.138 80.7667 388.671 80.1C389.138 79.5667 389.738 78.9333 390.471 78.2C391.138 77.4 391.938 76.5 392.871 75.5C394.804 73.4333 396.304 71.7 397.371 70.3C398.438 68.8333 398.871 67.8333 398.671 67.3C398.604 67.0333 398.371 66.9333 397.971 67C397.571 67 397.304 67.0667 397.171 67.2C396.971 67.2667 396.671 67.3667 396.271 67.5C395.871 67.5667 395.471 67.6667 395.071 67.8C394.671 67.8667 394.304 67.9 393.971 67.9C393.638 67.8333 393.438 67.6667 393.371 67.4C393.238 67.1333 393.438 66.7667 393.971 66.3C394.504 65.8333 395.171 65.3667 395.971 64.9C396.771 64.3667 397.571 63.9333 398.371 63.6C399.238 63.2 399.904 62.9667 400.371 62.9C401.504 62.9 402.404 63.1333 403.071 63.6C403.804 64.0667 403.971 65.0667 403.571 66.6C403.438 67.6667 402.771 68.9667 401.571 70.5C400.371 72.0333 399.104 73.6 397.771 75.2C402.371 72.4 407.071 69.6 411.871 66.8C414.271 65.4 416.038 64.7 417.171 64.7C418.904 64.7 419.771 65.3333 419.771 66.6C419.771 67.5333 418.704 69.2 416.571 71.6C415.304 73 414.271 74.2 413.471 75.2C412.671 76.2 412.071 77.0667 411.671 77.8C421.471 71.8667 427.704 68.2667 430.371 67C433.904 65.2667 436.504 64.3667 438.171 64.3C438.638 64.3 438.871 64.7 438.871 65.5C438.671 65.8333 438.438 66.2 438.171 66.6C437.904 66.9333 437.604 67.3667 437.271 67.9C437.004 68.4333 436.638 69.0667 436.171 69.8C434.438 72.5333 433.571 74.7667 433.571 76.5C433.571 79.1 434.804 80.4333 437.271 80.5C438.271 80.5 439.238 80.4333 440.171 80.3C441.171 80.1 442.371 79.7333 443.771 79.2C445.171 78.6667 446.938 77.9333 449.071 77C451.204 76 453.971 74.6667 457.371 73C457.504 72.9333 457.671 72.9 457.871 72.9C458.138 72.9 458.338 73.1 458.471 73.5ZM511.507 73C511.507 73.5333 511.407 73.9 511.207 74.1C506.607 77.1 502.44 79.3 498.707 80.7C495.04 82.1 491.94 82.9333 489.407 83.2C488.474 83.3333 487.54 83.3333 486.607 83.2C485.674 83.1333 484.84 82.9 484.107 82.5C483.374 82.1 482.774 81.5 482.307 80.7C481.84 79.9 481.607 78.8333 481.607 77.5C481.607 76.0333 482.174 74.3333 483.307 72.4C484.44 70.4 485.607 68.6667 486.807 67.2C485.874 67.5333 484.807 67.9333 483.607 68.4C482.407 68.8 481.14 69.2 479.807 69.6C479.34 70.5333 478.774 71.4667 478.107 72.4C477.44 73.3333 476.674 74.3333 475.807 75.4C470.674 81.5333 465.374 84.6333 459.907 84.7C456.24 84.7 454.374 82.8333 454.307 79.1C454.307 77.3667 454.974 75.3333 456.307 73C457.574 70.6667 459.207 68 461.207 65C462.54 63.1333 463.807 61.4333 465.007 59.9C466.274 58.3 467.307 56.6333 468.107 54.9C469.04 52.9667 470.207 51.6333 471.607 50.9C473.007 50.1667 474.24 49.6667 475.307 49.4C475.774 49.2667 476.34 49.1667 477.007 49.1C477.674 49.0333 478.04 49.4 478.107 50.2C478.107 50.9333 477.474 52 476.207 53.4C474.94 54.8 473.14 56.5333 470.807 58.6C467.674 61.4 465.007 64.4 462.807 67.6C460.674 70.7333 459.44 73.5667 459.107 76.1C458.974 77.3667 459.274 78.5 460.007 79.5C460.674 80.4333 462.007 80.8333 464.007 80.7C465.874 80.5667 467.674 79.9 469.407 78.7C471.14 77.5 472.874 75.6333 474.607 73.1C474.94 72.6333 475.207 72.2333 475.407 71.9C475.674 71.5 475.874 71.1 476.007 70.7C474.54 71.3 473.34 71.6333 472.407 71.7C471.474 71.7667 470.64 71.7333 469.907 71.6C469.707 71.5333 469.44 71.4333 469.107 71.3C468.84 71.1 468.574 70.8333 468.307 70.5C468.04 70.1667 467.84 69.8 467.707 69.4C467.64 68.9333 467.674 68.4333 467.807 67.9C468.14 66.5 469.04 65.3 470.507 64.3C471.974 63.2333 473.574 62.5667 475.307 62.3C476.174 62.1667 477.04 62.1667 477.907 62.3C478.774 62.3667 479.507 62.6333 480.107 63.1C480.707 63.5 481.074 64.1 481.207 64.9C481.34 65.7 481.14 66.7667 480.607 68.1C483.274 67.3667 485.507 66.5333 487.307 65.6C489.107 64.6 490.574 63.9333 491.707 63.6C492.574 63.6 493.007 63.9 493.007 64.5C493.007 65.0333 491.94 66.5 489.807 68.9C487.94 71.3 486.94 73.5667 486.807 75.7C486.807 77.0333 487.074 78.1333 487.607 79C488.207 79.8 489.14 80.2667 490.407 80.4C491.34 80.4 492.507 80.3 493.907 80.1C495.374 79.9 496.974 79.5333 498.707 79C500.507 78.4667 502.407 77.7 504.407 76.7C506.407 75.6333 508.407 74.2667 510.407 72.6C510.474 72.5333 510.74 72.5 511.207 72.5C511.34 72.5 511.44 72.6667 511.507 73ZM477.007 68.9C477.94 66.9667 477.807 65.5333 476.607 64.6C475.94 64.0667 475.174 63.8667 474.307 64C473.507 64.0667 472.84 64.3667 472.307 64.9C471.774 65.4333 471.407 66 471.207 66.6C471.007 67.2 471.074 67.8333 471.407 68.5C471.874 69.5 472.707 69.9667 473.907 69.9C475.107 69.7667 476.14 69.4333 477.007 68.9Z" fill="#4F4C18"/>
</svg>
