<svg width="303" height="97" viewBox="0 0 303 97" fill="none" xmlns="http://www.w3.org/2000/svg">
<path d="M112.8 22.2C112.8 24.5333 112.667 27.3333 112.4 30.6C112.2 33.8 111.867 37.5 111.4 41.7C110.533 49.9 109.533 56.3667 108.4 61.1C108.733 60.9667 109 60.8333 109.2 60.7C109.4 60.5667 109.667 60.3667 110 60.1C110.4 59.7 110.8 59.5 111.2 59.5C111.933 59.5 112.3 59.7667 112.3 60.3C112.3 60.7 110.867 62 108 64.2L107.4 69.6C107.333 70.1333 107.167 70.5667 106.9 70.9C106.633 71.3 106.267 71.7 105.8 72.1C105.067 72.6333 104.233 73 103.3 73.2C102.833 73.2 102.6 72.6333 102.6 71.5C102.6 70.7667 102.6 69.9333 102.6 69C102.667 68.0667 102.8 67.0333 103 65.9C95.8667 68.9667 89.6 70.5 84.2 70.5C80.6667 70.5 74.3 68.7 65.1 65.1C55.9 61.5 50.1 59.7 47.7 59.7C42.3 59.7 36.9333 60.6667 31.6 62.6C29.4667 63.4 27.2667 64.4 25 65.6C22.8 66.7333 20.3667 68.1333 17.7 69.8C15.7 71.1333 13.6333 72.4667 11.5 73.8C9.36667 75.2 7.2 76.6 5 78C4.4 78.3333 3.4 78.5667 2 78.7C1.13333 78.7 0.699999 78.3 0.699999 77.5C0.699999 77.5 1.93333 76.9333 4.4 75.8C6.53333 74.6667 9.16667 73.0333 12.3 70.9C15.4333 68.8333 19.1 66.1667 23.3 62.9C25.7 61.1 28.8333 58.4 32.7 54.8C36.5667 51.2 41.2333 46.7 46.7 41.3C51.9 36.1 56.6 31.3333 60.8 27C65 22.6 68.8 18.5 72.2 14.7C80.4 5.36666 88.6333 0.699995 96.9 0.699995C102.967 0.699995 107.333 3.3 110 8.5C110.933 10.2333 111.6 12.2333 112 14.5C112.467 16.7667 112.733 19.3333 112.8 22.2ZM107.6 24.3C107.6 10.9 103.3 4.2 94.7 4.2C89.5667 4.2 83.9333 6.86666 77.8 12.2C76.7333 13.0667 70.8667 18.9333 60.2 29.8C54.5333 35.6 50.2667 39.9667 47.4 42.9C44.5333 45.8333 43 47.4 42.8 47.6C39.7333 50.6 36.6333 53.5 33.5 56.3C30.3667 59.0333 27.2 61.6667 24 64.2C27.2667 62.8 29.9333 61.6667 32 60.8C34.1333 59.9333 35.7 59.3333 36.7 59C40.1667 58 44.2333 57.5 48.9 57.5C51.3667 57.5 54.4667 57.9 58.2 58.7C62 59.5 66.4667 60.8 71.6 62.6C76.7333 64.2 80.6667 65.4 83.4 66.2C86.2 67 87.8667 67.4667 88.4 67.6C90.8667 67.6 93.7 67.0333 96.9 65.9C98.0333 65.5 99.1333 65.1 100.2 64.7C101.267 64.2333 102.367 63.7333 103.5 63.2C103.967 59.6667 104.4 56.1667 104.8 52.7C105.2 49.1667 105.633 45.6 106.1 42C107.1 33.6 107.6 27.7 107.6 24.3ZM174.404 58.2C174.471 58.5333 174.304 58.9 173.904 59.3C171.104 61.5667 168.471 63.3333 166.004 64.6C163.604 65.8 161.271 66.7 159.004 67.3C156.737 67.9 154.571 68.2667 152.504 68.4C150.437 68.5333 148.404 68.6 146.404 68.6C145.271 68.6 143.771 68.4 141.904 68C140.104 67.6667 137.937 67.0667 135.404 66.2C132.871 65.3333 130.904 64.7333 129.504 64.4C128.171 64 127.304 63.7667 126.904 63.7C124.304 63.7 120.904 65.1333 116.704 68C115.437 68.9333 114.204 69.8333 113.004 70.7C111.737 71.5667 110.437 72.4667 109.104 73.4L107.204 73.1C108.271 71.8333 109.304 70.7 110.304 69.7C111.237 68.7667 112.371 67.6 113.704 66.2C114.971 64.7333 116.537 62.9 118.404 60.7C120.204 58.5 122.571 55.5333 125.504 51.8C126.504 50.4667 127.237 49.4 127.704 48.6C128.237 47.7333 128.604 47.0333 128.804 46.5C129.071 45.9667 129.237 45.4667 129.304 45C129.437 44.5333 129.604 44 129.804 43.4C130.337 41.5333 131.137 40.0667 132.204 39C133.271 37.8667 134.271 37.0667 135.204 36.6C135.937 36.2667 136.671 36.2333 137.404 36.5C138.204 36.7667 138.571 37.4667 138.504 38.6C137.904 39.6667 137.004 41 135.804 42.6C134.671 44.2 133.371 45.9 131.904 47.7C130.437 49.5 128.937 51.3 127.404 53.1C125.937 54.8333 124.571 56.4333 123.304 57.9C122.037 59.3667 121.004 60.5667 120.204 61.5C119.337 62.4333 118.871 62.9333 118.804 63C121.071 61.8 123.371 60.5667 125.704 59.3C128.037 58.0333 130.404 56.7333 132.804 55.4C137.271 53.0667 141.171 51.3667 144.504 50.3C147.904 49.1667 150.771 48.5667 153.104 48.5C155.371 48.5 156.604 49.3667 156.804 51.1C156.804 52.5667 156.104 53.3 154.704 53.3C153.904 53.3 152.971 53.2 151.904 53C150.904 52.8 150.037 52.6333 149.304 52.5C145.171 52.5 140.971 53.4667 136.704 55.4C135.371 56.1333 134.204 56.8 133.204 57.4C132.204 58 131.371 58.6333 130.704 59.3C135.304 61.1667 139.271 62.4667 142.604 63.2C145.937 63.9333 148.671 64.4667 150.804 64.8C151.604 64.9333 152.637 65.0667 153.904 65.2C155.171 65.3333 156.737 65.2667 158.604 65C160.471 64.6667 162.604 64 165.004 63C167.404 61.9333 170.171 60.2667 173.304 58C173.504 57.8667 173.704 57.8 173.904 57.8C174.171 57.7333 174.337 57.8667 174.404 58.2ZM199.383 68.4C197.849 70.2 196.483 71.8333 195.283 73.3C194.149 74.7667 192.983 76.2 191.783 77.6C190.649 79.0667 189.416 80.5667 188.083 82.1C186.749 83.7 185.183 85.5 183.383 87.5C180.849 90.4333 178.683 92.5667 176.883 93.9C175.149 95.3 173.816 96.0333 172.883 96.1C172.683 96.1 172.449 96 172.183 95.8C171.849 95.6667 171.583 95.4667 171.383 95.2C171.183 94.9333 171.083 94.6 171.083 94.2C171.016 93.8 171.149 93.3667 171.483 92.9C172.283 91.7667 173.216 90.7667 174.283 89.9C175.283 89.1 176.383 88.2667 177.583 87.4C179.849 85.8667 181.916 84.4667 183.783 83.2C185.649 81.9333 187.449 80.3333 189.183 78.4C191.316 76.0667 192.883 74.2 193.883 72.8C194.949 71.4667 195.749 70.3667 196.283 69.5C195.616 69.8333 194.849 70.0333 193.983 70.1C193.116 70.1667 192.316 70.2 191.583 70.2C189.916 70.1333 188.483 69.4667 187.283 68.2C186.149 67 185.683 65.0333 185.883 62.3C184.216 64.0333 182.249 65.6 179.983 67C177.783 68.4 175.649 69.1333 173.583 69.2C173.049 69.2667 172.483 69.2333 171.883 69.1C171.283 69.0333 170.716 68.8333 170.183 68.5C169.583 68.2333 169.083 67.8 168.683 67.2C168.283 66.6667 168.083 65.9 168.083 64.9C167.949 62.6333 168.949 60.4333 171.083 58.3C172.016 57.3 173.483 56.1 175.483 54.7C177.416 53.2333 179.883 51.5333 182.883 49.6C183.416 49.6 183.583 50.1 183.383 51.1C181.583 52.2333 179.849 53.4667 178.183 54.8C174.983 57.6 173.349 60.1 173.283 62.3C173.216 63.1667 173.316 63.9333 173.583 64.6C173.849 65.2667 174.349 65.6667 175.083 65.8C176.883 66.2 178.516 65.9 179.983 64.9C181.516 63.8333 182.983 62.7 184.383 61.5C185.116 60.9667 186.049 60.0333 187.183 58.7C188.316 57.3 189.683 55.5667 191.283 53.5C193.683 50.4333 195.349 48.9 196.283 48.9C197.216 48.9 197.716 49.2667 197.783 50C197.783 50.7333 196.516 52.2667 193.983 54.6C192.783 55.7333 191.883 56.7333 191.283 57.6C190.749 58.4667 190.416 59.4 190.283 60.4C190.149 61.1333 190.149 62.0333 190.283 63.1C190.483 64.1667 190.849 65.0667 191.383 65.8C191.916 66.5333 192.349 67 192.683 67.2C193.083 67.4 193.916 67.5333 195.183 67.6C196.316 67.6667 197.183 67.4333 197.783 66.9C198.383 66.3667 198.849 65.7333 199.183 65C199.516 64.2667 199.849 63.5333 200.183 62.8C200.516 62.0667 201.016 61.5333 201.683 61.2C202.416 60.9333 202.916 61.0333 203.183 61.5C203.449 61.9 203.483 62.5 203.283 63.3C203.083 64.1 202.649 65 201.983 66C201.383 66.9333 200.516 67.7333 199.383 68.4ZM256.252 58.5C256.519 58.3667 256.752 58.2333 256.952 58.1C257.219 57.9 257.419 58 257.552 58.4C257.752 58.8667 257.586 59.3 257.052 59.7C254.652 61.5 252.219 63.1333 249.752 64.6C247.352 66 245.019 67.1667 242.752 68.1C240.552 69.1 238.519 69.8333 236.652 70.3C234.786 70.7667 233.219 70.9667 231.952 70.9C231.152 70.8333 230.319 70.6333 229.452 70.3C228.652 69.9667 227.919 69.4667 227.252 68.8C226.652 68.1333 226.152 67.2667 225.752 66.2C225.352 65.1333 225.186 63.8333 225.252 62.3C224.452 63.1667 223.486 64.0333 222.352 64.9C221.219 65.7667 220.019 66.5333 218.752 67.2C217.486 67.8667 216.252 68.4 215.052 68.8C213.852 69.2 212.786 69.4 211.852 69.4C210.786 69.4 209.786 69.0333 208.852 68.3C207.919 67.6333 207.452 66.5333 207.452 65C207.386 62.7333 208.386 60.5 210.452 58.3C211.386 57.3 212.819 56.1 214.752 54.7C216.686 53.2333 219.152 51.5333 222.152 49.6C222.552 49.6 222.819 49.7667 222.952 50.1C223.086 50.3667 223.052 50.7 222.852 51.1C221.986 51.6333 221.119 52.2 220.252 52.8C219.386 53.4 218.486 54.0667 217.552 54.8C215.886 56.2 214.686 57.5333 213.952 58.8C213.152 60 212.686 61.1667 212.552 62.3C212.352 64.3 212.986 65.4667 214.452 65.8C215.652 66.0667 217.019 65.7667 218.552 64.9C220.152 63.9667 221.952 62.7 223.952 61.1C224.686 60.5 225.586 59.6 226.652 58.4C227.786 57.2 229.119 55.5667 230.652 53.5C232.986 50.4333 234.686 48.9 235.752 48.9C236.619 48.9 237.086 49.2667 237.152 50C237.152 50.7333 235.886 52.2667 233.352 54.6C230.952 56.8667 229.752 58.8 229.752 60.4C229.752 62.6667 230.119 64.3 230.852 65.3C231.652 66.3 232.719 67.0333 234.052 67.5C235.919 68.1 237.986 68.0333 240.252 67.3C242.586 66.5667 245.152 65.4667 247.952 64C249.086 63.4 250.419 62.6667 251.952 61.8C253.486 60.9333 254.919 59.8333 256.252 58.5ZM301.467 58.5C301.734 58.3667 301.967 58.2333 302.167 58.1C302.434 57.9 302.634 58 302.767 58.4C302.967 58.8667 302.801 59.3 302.267 59.7C299.867 61.5 297.434 63.1333 294.967 64.6C292.567 66 290.234 67.1667 287.967 68.1C285.767 69.1 283.734 69.8333 281.867 70.3C280.001 70.7667 278.434 70.9667 277.167 70.9C276.367 70.8333 275.534 70.6333 274.667 70.3C273.867 69.9667 273.134 69.4667 272.467 68.8C271.867 68.1333 271.367 67.2667 270.967 66.2C270.567 65.1333 270.401 63.8333 270.467 62.3C269.667 63.1667 268.701 64.0333 267.567 64.9C266.434 65.7667 265.234 66.5333 263.967 67.2C262.701 67.8667 261.467 68.4 260.267 68.8C259.067 69.2 258.001 69.4 257.067 69.4C256.001 69.4 255.001 69.0333 254.067 68.3C253.134 67.6333 252.667 66.5333 252.667 65C252.601 62.7333 253.601 60.5 255.667 58.3C256.601 57.3 258.034 56.1 259.967 54.7C261.901 53.2333 264.367 51.5333 267.367 49.6C267.767 49.6 268.034 49.7667 268.167 50.1C268.301 50.3667 268.267 50.7 268.067 51.1C267.201 51.6333 266.334 52.2 265.467 52.8C264.601 53.4 263.701 54.0667 262.767 54.8C261.101 56.2 259.901 57.5333 259.167 58.8C258.367 60 257.901 61.1667 257.767 62.3C257.567 64.3 258.201 65.4667 259.667 65.8C260.867 66.0667 262.234 65.7667 263.767 64.9C265.367 63.9667 267.167 62.7 269.167 61.1C269.901 60.5 270.801 59.6 271.867 58.4C273.001 57.2 274.334 55.5667 275.867 53.5C278.201 50.4333 279.901 48.9 280.967 48.9C281.834 48.9 282.301 49.2667 282.367 50C282.367 50.7333 281.101 52.2667 278.567 54.6C276.167 56.8667 274.967 58.8 274.967 60.4C274.967 62.6667 275.334 64.3 276.067 65.3C276.867 66.3 277.934 67.0333 279.267 67.5C281.134 68.1 283.201 68.0333 285.467 67.3C287.801 66.5667 290.367 65.4667 293.167 64C294.301 63.4 295.634 62.6667 297.167 61.8C298.701 60.9333 300.134 59.8333 301.467 58.5Z" fill="#4F4C18"/>
</svg>
