<svg width="24" height="31" viewBox="0 0 24 31" fill="none" xmlns="http://www.w3.org/2000/svg">
<path fill-rule="evenodd" clip-rule="evenodd" d="M4.12819 2.5791H19.8718C21.0476 2.5791 22 3.84419 22 5.40606V7.38096C22 8.13864 21.7704 8.86624 21.3627 9.39689L14.8577 17.8819C14.7454 18.0296 14.5931 18.1116 14.4355 18.1103L8.98893 18.0884C8.82317 18.0884 8.66564 17.9967 8.55238 17.8367L2.57452 9.3586C2.20489 8.83478 2 8.14275 2 7.42473V5.40743C2 3.84556 2.95238 2.5791 4.12819 2.5791ZM9.2801 20.4056L14.1347 20.4247C14.4374 20.4261 14.6824 20.753 14.6824 21.1537V24.6754C14.6824 25.0775 14.5053 25.4413 14.2294 25.6095L9.8227 28.2779C9.71974 28.3394 9.61061 28.3695 9.50147 28.3695C9.35629 28.3695 9.21112 28.3148 9.08448 28.2067C8.86312 28.018 8.72927 27.6925 8.72927 27.3437V21.1346C8.72927 20.7311 8.97637 20.4042 9.2801 20.4056Z" fill="#4F3818"/>
</svg>
