<svg width="311" height="133" viewBox="0 0 311 133" fill="none" xmlns="http://www.w3.org/2000/svg">
<path d="M134 18.8C134 19.3333 133.4 20.2 132.2 21.4C131.8 21.7333 131.4 22.0667 131 22.4C130.667 22.7333 130.3 23.1333 129.9 23.6C116.7 39.4667 104.6 54.6667 93.6 69.2C82.6667 83.7333 72.6333 97.7333 63.5 111.2C57.6333 120.133 54.6667 125.6 54.6 127.6C54.6 128.2 55 128.767 55.8 129.3C56.6 129.9 57 130.333 57 130.6C57 132.2 56.3667 133 55.1 133C54.4333 133 53.5667 132.367 52.5 131.1C51.4333 129.833 50.8333 128.767 50.7 127.9C50.7 125.033 52.5 120.833 56.1 115.3C59.1 110.833 61.5667 107.2 63.5 104.4C65.4333 101.6 66.8667 99.5333 67.8 98.2C73.4667 90.8667 79.1333 83.5333 84.8 76.2C90.4667 68.9333 96.1667 61.6 101.9 54.2C86.2333 66.4667 78.3667 72.6 78.3 72.6C71.9667 77.2 67.0333 79.5 63.5 79.5C59.2333 79.5 55.7 76.3333 52.9 70C51.7667 67.6667 50.7667 64.7333 49.9 61.2C49.0333 57.6 48.2333 53.4 47.5 48.6C46.9667 44.7333 46.4333 40.9 45.9 37.1C45.3667 33.3 44.8333 29.4667 44.3 25.6C43.7 20.3333 41.5333 15.6333 37.8 11.5C33.8 7.1 29.1667 4.8 23.9 4.6C17.2333 4.6 9.46667 6.6 0.6 10.6L0.9 8.7C2.1 7.83333 3.53333 6.96666 5.2 6.09999C6.93333 5.23333 8.96667 4.33333 11.3 3.4C16.9 1.33333 21.6333 0.233329 25.5 0.0999937C29.9 0.0999937 34.5333 2.16666 39.4 6.3C44.4 10.8333 47.7 16.4667 49.3 23.2C50.3667 29.2667 51.4 35.2667 52.4 41.2C53.4667 47.1333 54.5667 53.1333 55.7 59.2C56.8333 64.6 58.3 68.6333 60.1 71.3C61.9 73.9 64.0667 75.2667 66.6 75.4C70.2 75.4 77.1 71.3 87.3 63.1C92.1 59.1667 96.7 55.1333 101.1 51C105.5 46.8 109.833 42.4 114.1 37.8C114.433 37.4667 115.6 36.1667 117.6 33.9C119.6 31.6333 122.467 28.3333 126.2 24C130 19.5333 132.233 17.3 132.9 17.3C133.567 17.3 133.933 17.8 134 18.8ZM148.13 67.3C148.596 66.8333 148.963 66.9333 149.23 67.6C149.23 68.2 149.063 68.5667 148.73 68.7C144.263 71.7667 139.663 74.4333 134.93 76.7C130.263 78.9667 125.396 80.1333 120.33 80.2C118.996 80.2 117.763 80.0333 116.63 79.7C115.43 79.3667 114.396 78.8667 113.53 78.2C112.663 77.5333 111.996 76.7 111.53 75.7C111.063 74.6333 110.896 73.4 111.03 72C111.23 70.2667 111.796 68.4667 112.73 66.6C113.663 64.6667 115.33 62.7333 117.73 60.8C118.93 59.8 120.196 58.9 121.53 58.1C122.863 57.3 124.196 56.6 125.53 56C126.93 55.4 128.263 54.9333 129.53 54.6C130.796 54.2667 131.963 54.0667 133.03 54C135.163 54 136.296 55 136.43 57C136.43 57.9333 136.03 58.8667 135.23 59.8C134.496 60.7333 133.563 61.6 132.43 62.4C131.296 63.1333 130.063 63.7667 128.73 64.3C127.396 64.8333 126.196 65.1333 125.13 65.2C124.396 65.2 123.863 65.1 123.53 64.9C123.263 64.7 123.063 64.4333 122.93 64.1C122.53 63.1667 122.663 62.4667 123.33 62C124.063 61.4667 124.93 61.2 125.93 61.2C126.063 61.2 126.396 61.2667 126.93 61.4C127.463 61.4667 128.196 61.5667 129.13 61.7C129.53 61.7667 129.996 61.6667 130.53 61.4C131.13 61.1333 131.63 60.8 132.03 60.4C132.496 60 132.83 59.5667 133.03 59.1C133.23 58.5667 133.23 58.1 133.03 57.7C132.696 57.2333 132.396 56.9667 132.13 56.9C131.863 56.7667 131.296 56.7 130.43 56.7C129.163 56.7 127.63 57.1 125.83 57.9C124.096 58.7 122.33 59.9 120.53 61.5C117.13 64.7667 115.43 67.6333 115.43 70.1C115.43 72.3667 116.163 74.0667 117.63 75.2C119.163 76.2667 121.33 76.8 124.13 76.8C126.196 76.8 128.696 76.3667 131.63 75.5C134.63 74.5667 137.563 73.4 140.43 72C141.363 71.5333 142.13 71.1 142.73 70.7C143.396 70.3 143.996 69.9333 144.53 69.6C145.063 69.2667 145.596 68.9333 146.13 68.6C146.663 68.2 147.33 67.7667 148.13 67.3ZM192.302 67.7C192.302 68.2333 192.169 68.5667 191.902 68.7C189.169 70.9 186.636 72.6667 184.302 74C181.969 75.2667 179.836 76.2333 177.902 76.9C175.969 77.5667 174.202 77.9667 172.602 78.1C171.069 78.2333 169.769 78.2333 168.702 78.1C167.102 77.8333 165.836 77.1333 164.902 76C163.969 74.8 163.336 72.9 163.002 70.3C161.202 72.1667 158.669 73.9 155.402 75.5C154.069 76.1 152.902 76.5667 151.902 76.9C150.969 77.3 150.202 77.4333 149.602 77.3C146.602 76.9 144.969 75.4333 144.702 72.9C144.702 70.5 145.302 68.8 146.502 67.8C147.236 67.2 148.102 66.8 149.102 66.6C150.036 66.3333 150.636 66.5333 150.902 67.2C151.169 67.8 151.302 68.4333 151.302 69.1C151.236 69.7667 151.169 70.4 151.102 71C151.036 71.6 151.069 72.1667 151.202 72.7C151.336 73.1667 151.669 73.5 152.202 73.7C152.669 73.8333 153.302 73.7667 154.102 73.5C154.969 73.2333 155.836 72.8667 156.702 72.4C157.636 71.8667 158.536 71.3 159.402 70.7C160.336 70.1 161.102 69.5333 161.702 69C162.436 68.4667 163.336 67.5667 164.402 66.3C165.536 65.0333 166.869 63.4 168.402 61.4C169.002 60.6667 169.636 59.9 170.302 59.1C170.969 58.2333 171.602 57.4667 172.202 56.8C172.869 56.1333 173.469 55.5667 174.002 55.1C174.536 54.6333 174.936 54.4 175.202 54.4C175.402 54.4 175.636 54.4 175.902 54.4C176.236 54.4 176.502 54.5 176.702 54.7C176.969 54.8333 177.136 55.1 177.202 55.5C177.336 55.8333 177.269 56.3667 177.002 57.1C176.669 58.0333 175.936 58.8667 174.802 59.6C173.669 60.3333 172.469 61.3 171.202 62.5C168.802 64.7667 167.569 66.7 167.502 68.3C167.502 69.8333 167.836 71.1333 168.502 72.2C169.236 73.2 170.269 73.9 171.602 74.3C173.402 74.8333 175.169 74.9667 176.902 74.7C178.636 74.3667 180.336 73.8333 182.002 73.1C183.736 72.3 185.369 71.3667 186.902 70.3C188.436 69.2333 189.902 68.2 191.302 67.2C191.836 66.8 192.169 66.9667 192.302 67.7ZM221.357 61.8C221.357 62.4 219.19 64.9333 214.857 69.4C210.857 73.4 207.524 76.7333 204.857 79.4C202.257 82.0667 200.257 84.1333 198.857 85.6C194.924 89.6667 191.224 93.7333 187.757 97.8C184.29 101.867 180.957 105.933 177.757 110C176.424 111.8 175.457 113.333 174.857 114.6C174.19 115.867 173.79 116.833 173.657 117.5C173.657 117.7 173.69 117.9 173.757 118.1C173.824 118.367 173.89 118.7 173.957 119.1C174.024 119.5 174.057 119.833 174.057 120.1C174.057 120.433 174.057 120.667 174.057 120.8C173.257 122.933 171.69 124.067 169.357 124.2C169.224 123.4 169.124 122.7 169.057 122.1C168.99 121.567 168.924 121.033 168.857 120.5C168.857 117.3 170.724 113.7 174.457 109.7L207.757 72.9C202.09 76.5667 197.69 78.4 194.557 78.4C191.424 78.4 189.857 76.7667 189.857 73.5C189.857 70.9 190.924 67.8333 193.057 64.3C195.19 61.3667 196.957 59.5667 198.357 58.9C199.424 58.8333 200.024 59.1667 200.157 59.9C200.157 59.7667 198.99 61.0667 196.657 63.8C194.457 66.4667 193.257 69.1 193.057 71.7C193.057 73.7667 194.824 74.8667 198.357 75C201.024 75 205.157 72.7 210.757 68.1C216.29 63.5667 219.457 61.2667 220.257 61.2C220.924 61.2 221.29 61.4 221.357 61.8ZM264.885 66.9C265.085 66.7667 265.285 66.7 265.485 66.7C265.752 66.6333 265.952 66.7667 266.085 67.1C266.218 67.5667 266.052 67.9 265.585 68.1C263.785 69.2333 261.652 70.5 259.185 71.9C256.718 73.2333 254.185 74.4667 251.585 75.6C249.052 76.7333 246.585 77.6667 244.185 78.4C241.785 79.1333 239.785 79.4667 238.185 79.4C237.518 79.4 236.818 79.3 236.085 79.1C235.418 78.9 234.785 78.5667 234.185 78.1C233.652 77.6333 233.185 77.0333 232.785 76.3C232.452 75.6333 232.318 74.7667 232.385 73.7C232.452 73.1 232.785 72.3667 233.385 71.5C233.985 70.6333 234.985 69.6333 236.385 68.5C237.452 67.6333 238.652 66.7 239.985 65.7C241.318 64.6333 242.552 63.6667 243.685 62.8C244.418 62.2667 244.718 61.8 244.585 61.4C244.452 61 244.218 60.7667 243.885 60.7C243.685 60.6333 243.352 60.6333 242.885 60.7C242.418 60.7667 241.918 60.9 241.385 61.1C240.852 61.3 240.318 61.5333 239.785 61.8C239.252 62 238.852 62.1667 238.585 62.3C238.052 62.5667 237.385 62.9333 236.585 63.4C235.852 63.8 235.085 64.2667 234.285 64.8C233.485 65.2667 232.685 65.7667 231.885 66.3C231.152 66.7667 230.485 67.1667 229.885 67.5C229.685 67.5667 229.518 67.4 229.385 67C229.318 66.8 229.285 66.6333 229.285 66.5C230.685 65.5667 232.252 64.5667 233.985 63.5C235.718 62.4333 237.418 61.4667 239.085 60.6C240.818 59.6667 242.385 58.9 243.785 58.3C245.185 57.7 246.252 57.3667 246.985 57.3C248.318 57.1667 249.118 57.4333 249.385 58.1C249.718 58.7 249.818 59.3667 249.685 60.1C249.485 61.0333 248.818 62.0667 247.685 63.2C246.618 64.2667 244.985 65.5 242.785 66.9C241.052 68.0333 239.585 69.1333 238.385 70.2C237.252 71.2 236.618 71.9667 236.485 72.5C236.152 73.9667 236.318 75.0333 236.985 75.7C237.652 76.3 238.618 76.7 239.885 76.9C241.418 77.1667 243.185 77 245.185 76.4C247.252 75.8 249.418 75 251.685 74C253.952 73 256.218 71.8667 258.485 70.6C260.752 69.2667 262.885 68.0333 264.885 66.9ZM309.604 67.5C309.871 67.3667 310.104 67.2333 310.304 67.1C310.571 66.9 310.771 67 310.904 67.4C311.104 67.8667 310.937 68.3 310.404 68.7C308.004 70.5 305.571 72.1333 303.104 73.6C300.704 75 298.371 76.1667 296.104 77.1C293.904 78.1 291.871 78.8333 290.004 79.3C288.137 79.7667 286.571 79.9667 285.304 79.9C284.504 79.8333 283.671 79.6333 282.804 79.3C282.004 78.9667 281.271 78.4667 280.604 77.8C280.004 77.1333 279.504 76.2667 279.104 75.2C278.704 74.1333 278.537 72.8333 278.604 71.3C277.804 72.1667 276.837 73.0333 275.704 73.9C274.571 74.7667 273.371 75.5333 272.104 76.2C270.837 76.8667 269.604 77.4 268.404 77.8C267.204 78.2 266.137 78.4 265.204 78.4C264.137 78.4 263.137 78.0333 262.204 77.3C261.271 76.6333 260.804 75.5333 260.804 74C260.737 71.7333 261.737 69.5 263.804 67.3C264.737 66.3 266.171 65.1 268.104 63.7C270.037 62.2333 272.504 60.5333 275.504 58.6C275.904 58.6 276.171 58.7667 276.304 59.1C276.437 59.3667 276.404 59.7 276.204 60.1C275.337 60.6333 274.471 61.2 273.604 61.8C272.737 62.4 271.837 63.0667 270.904 63.8C269.237 65.2 268.037 66.5333 267.304 67.8C266.504 69 266.037 70.1667 265.904 71.3C265.704 73.3 266.337 74.4667 267.804 74.8C269.004 75.0667 270.371 74.7667 271.904 73.9C273.504 72.9667 275.304 71.7 277.304 70.1C278.037 69.5 278.937 68.6 280.004 67.4C281.137 66.2 282.471 64.5667 284.004 62.5C286.337 59.4333 288.037 57.9 289.104 57.9C289.971 57.9 290.437 58.2667 290.504 59C290.504 59.7333 289.237 61.2667 286.704 63.6C284.304 65.8667 283.104 67.8 283.104 69.4C283.104 71.6667 283.471 73.3 284.204 74.3C285.004 75.3 286.071 76.0333 287.404 76.5C289.271 77.1 291.337 77.0333 293.604 76.3C295.937 75.5667 298.504 74.4667 301.304 73C302.437 72.4 303.771 71.6667 305.304 70.8C306.837 69.9333 308.271 68.8333 309.604 67.5Z" fill="#4F4C18"/>
</svg>
