<svg width="448" height="123" viewBox="0 0 448 123" fill="none" xmlns="http://www.w3.org/2000/svg">
<path d="M99.4 15.8C99.4 19.0667 96.4 31.7333 90.4 53.8C89.2667 57.8 88.2667 61.8667 87.4 66C86.6 70.1333 85.8667 74.4 85.2 78.8C83.4667 78.5333 82.3667 77.8333 81.9 76.7C81.7667 76.3 81.6333 75.2667 81.5 73.6C81.5 70.0667 82.1333 66.0667 83.4 61.6C83.8667 59.8 84.3333 58 84.8 56.2C85.3333 54.3333 85.8667 52.4667 86.4 50.6C86.7333 49.1333 87.2667 46.8 88 43.6C88.8 40.4 89.8667 36.3 91.2 31.3C92.5333 25.9 93.2333 21.9 93.3 19.3C93.3 17.4333 92.8 15.9 91.8 14.7C90.8667 13.3 89.6667 12.5667 88.2 12.5C87 12.5 85.3 13.1667 83.1 14.5C80.9 15.7667 78.2 17.7667 75 20.5C71.8 23.1 68.7 25.9667 65.7 29.1C62.7667 32.1667 59.8 35.5 56.8 39.1C54.3333 42.1 51.8667 45.0667 49.4 48C46.9333 50.9333 44.4667 53.9 42 56.9C39.8 59.4333 37.7333 61.9333 35.8 64.4C33.9333 66.8 32.1333 69.2 30.4 71.6C28.6 74.2667 27.1333 76.3667 26 77.9C24.8667 79.4333 24.0667 80.5333 23.6 81.2C22.8667 82.1333 22.1667 82.8 21.5 83.2C20.8333 83.6667 20.2333 83.9333 19.7 84C19.1 84 18.8 83.7333 18.8 83.2C18.8 82.0667 21.4333 77.7333 26.7 70.2C36.7667 56.0667 43.9 45.0333 48.1 37.1C51.9 29.5 53.8 23.1667 53.8 18.1C53.8 16.0333 53.5333 14.2 53 12.6C52.4667 11 51.5667 9.53333 50.3 8.2C48.1667 6 45.5333 4.9 42.4 4.9C40 4.9 37.3667 5.36666 34.5 6.3C31.6333 7.16666 28.4333 8.46666 24.9 10.2C18.9667 13.1333 14.2 16.3667 10.6 19.9C10.0667 20.4333 9.3 21.2333 8.3 22.3C7.3 23.3667 5.96667 24.8 4.3 26.6C3.36667 27.6667 2.6 28.4333 2 28.9C1.4 29.3667 0.966667 29.6667 0.700001 29.8C0.366667 29.8 0.166667 29.5 0.1 28.9C0.1 28.1667 3.13333 24.8 9.2 18.8C14.5333 13.4667 20.6333 9.1 27.5 5.7C30.8333 3.96666 34 2.7 37 1.9C40 1.1 42.9 0.666664 45.7 0.599998C49.7 0.599998 53 1.9 55.6 4.5C56.9333 5.7 57.8667 7.13333 58.4 8.79999C58.9333 10.4 59.2667 12.2667 59.4 14.4C59.4 16.2667 59.2333 18.1667 58.9 20.1C58.5667 21.9667 58.0333 23.9 57.3 25.9C56.6333 27.9 55.6333 30.3 54.3 33.1C53.0333 35.8333 51.3667 39.0333 49.3 42.7C52.7 39.3 56 35.9333 59.2 32.6C62.4667 29.2 65.8 25.7333 69.2 22.2C78.6 13.1333 86.3667 8.53333 92.5 8.4C94.5 8.4 96.1333 9.06666 97.4 10.4C98.7333 11.7333 99.4 13.5333 99.4 15.8ZM136.075 72.6C136.075 72.8667 136.042 73.1 135.975 73.3C135.975 73.4333 135.875 73.6 135.675 73.8C132.008 76.6 128.675 78.4667 125.675 79.4C122.675 80.3333 119.875 80.8667 117.275 81C115.542 81.0667 113.875 80.4333 112.275 79.1C110.342 80.7667 108.342 82.0667 106.275 83C104.275 84 102.108 84.5667 99.775 84.7C98.3083 84.7667 97.1083 84.4333 96.175 83.7C95.175 83.0333 94.675 82 94.675 80.6C94.675 77.0667 97.2417 73.0667 102.375 68.6C104.908 66.4667 107.275 64.9 109.475 63.9C111.675 62.9 113.575 62.4 115.175 62.4C118.575 62.4 120.275 64 120.275 67.2C120.275 68.9333 119.808 70.6667 118.875 72.4C117.942 74.1333 116.408 75.8667 114.275 77.6C115.142 78.4667 116.242 78.9 117.575 78.9C118.508 78.9 119.542 78.8333 120.675 78.7C121.808 78.5667 123.075 78.3 124.475 77.9C125.875 77.4333 127.442 76.7667 129.175 75.9C130.908 74.9667 132.842 73.7333 134.975 72.2C135.175 72.0667 135.408 72 135.675 72C135.942 72 136.075 72.2 136.075 72.6ZM118.775 66.4C118.775 65.8 118.642 65.3667 118.375 65.1C118.175 64.8333 117.708 64.6667 116.975 64.6C115.575 64.6 114.308 65.2667 113.175 66.6C112.108 67.8667 111.508 69.3 111.375 70.9C111.375 73.3667 111.842 75 112.775 75.8C116.775 72.6 118.775 69.4667 118.775 66.4ZM111.275 77.4C110.608 76.7333 110.142 75.9333 109.875 75C109.608 74.0667 109.475 73.1 109.475 72.1C109.542 71.1 109.708 70.1 109.975 69.1C110.308 68.0333 110.675 67.0333 111.075 66.1C109.875 66.3667 108.575 66.9 107.175 67.7C105.842 68.5 104.575 69.4333 103.375 70.5C102.242 71.5667 101.275 72.7333 100.475 74C99.675 75.2 99.175 76.4 98.975 77.6C98.8417 78.8 99.075 79.7 99.675 80.3C100.275 80.9 101.075 81.2333 102.075 81.3C104.875 81.3 107.942 80 111.275 77.4ZM148.513 85.7C145.313 86.5667 142.146 87.4333 139.013 88.3C135.946 89.1667 132.812 90.1 129.612 91.1C124.212 92.6333 119.412 94.2 115.212 95.8C110.946 97.4 107.312 99 104.312 100.6C95.7792 104.933 91.5125 109.467 91.5125 114.2C91.5125 116.067 92.3792 117.433 94.1125 118.3C95.7792 119.167 97.9792 119.5 100.712 119.3C103.446 119.1 106.512 118.367 109.912 117.1C113.246 115.833 116.612 114 120.012 111.6C133.746 101.667 143.246 93.0333 148.513 85.7ZM176.913 71.7C177.179 71.5667 177.413 71.4667 177.613 71.4C177.813 71.3333 177.979 71.4667 178.113 71.8C178.179 72.0667 178.179 72.2667 178.113 72.4C178.113 72.5333 177.946 72.7 177.613 72.9C173.746 75.2333 169.713 77.3 165.513 79.1C161.313 80.9 157.446 82.6 153.913 84.2C149.113 90.3333 141.379 97.5 130.712 105.7C115.912 116.9 104.179 122.567 95.5125 122.7C93.3792 122.7 91.5458 122.133 90.0125 121C88.4792 119.933 87.7125 118.433 87.7125 116.5C87.7125 108.5 96.3792 101.2 113.712 94.6C117.379 93.1333 124.046 90.9333 133.712 88C138.512 86.6 142.246 85.4667 144.912 84.6C147.646 83.8 149.413 83.2333 150.213 82.9C154.879 77.7 157.279 72.7 157.413 67.9C157.413 64.7 155.546 63.1 151.813 63.1C150.413 63.1 149.046 63.2667 147.713 63.6C146.379 63.9333 145.046 64.4667 143.713 65.2C141.046 66.8 139.713 68.5667 139.713 70.5C139.713 73.1667 140.779 74.5333 142.913 74.6C144.246 74.6 145.946 74.2 148.013 73.4C150.146 72.5333 152.413 71.3333 154.813 69.8L154.113 71.3C151.913 72.8333 149.579 74.2333 147.113 75.5C144.646 76.7 142.246 77.3 139.913 77.3C138.513 77.3 137.279 76.9667 136.212 76.3C135.079 75.5667 134.579 74.1333 134.712 72C134.846 70.8667 135.412 69.7 136.412 68.5C137.346 67.2333 138.846 65.9333 140.913 64.6C145.046 62.2 148.946 60.9667 152.613 60.9C155.146 60.9 157.213 61.5333 158.813 62.8C160.479 64 161.379 65.8333 161.513 68.3C161.513 71.4333 159.846 75.5333 156.513 80.6C157.579 80.2667 159.113 79.7 161.113 78.9C163.113 78.1 165.146 77.2667 167.213 76.4C169.346 75.4667 171.313 74.5667 173.113 73.7C174.913 72.8333 176.179 72.1667 176.913 71.7ZM226.605 73.1C226.605 73.2333 226.571 73.4 226.505 73.6C226.505 73.8 226.405 73.9667 226.205 74.1C223.205 75.6333 220.538 76.9333 218.205 78C215.871 79.0667 213.738 79.9333 211.805 80.6C209.938 81.2667 208.171 81.7333 206.505 82C204.838 82.3333 203.205 82.5 201.605 82.5C197.871 82.5 195.971 80.5 195.905 76.5C195.905 75.7667 195.971 74.8667 196.105 73.8C196.305 72.6667 196.605 71.3333 197.005 69.8C194.538 71.2667 191.971 72.8 189.305 74.4C186.705 75.9333 183.971 77.6333 181.105 79.5C177.171 82.1 175.038 83.4 174.705 83.4C174.571 83.4 174.338 83.2667 174.005 83C173.605 82.8667 173.405 82.6333 173.405 82.3C173.405 81.8333 173.705 81.0667 174.305 80C174.838 78.9333 175.771 77.4667 177.105 75.6C177.771 74.6 178.371 73.8 178.905 73.2C179.371 72.5333 179.771 72 180.105 71.6C180.438 71.2 180.705 70.9 180.905 70.7C181.171 70.4333 181.371 70.2 181.505 70C181.638 69.4667 181.571 69.1667 181.305 69.1C181.105 69.0333 180.838 68.8333 180.505 68.5C180.305 68.2333 180.405 67.9333 180.805 67.6C181.271 67.2667 181.738 66.8667 182.205 66.4C182.738 65.9333 183.505 65.4333 184.505 64.9C185.571 64.3 186.371 63.9333 186.905 63.8C187.838 63.6667 188.405 63.8333 188.605 64.3C188.805 64.7667 188.838 65.4333 188.705 66.3C188.705 66.8333 187.605 68.5333 185.405 71.4C184.471 72.6667 183.638 73.7333 182.905 74.6C182.238 75.4667 181.638 76.1667 181.105 76.7C193.771 68.0333 201.938 63.7 205.605 63.7C205.938 63.7 206.171 64.1333 206.305 65C206.305 65.0667 205.305 66.3 203.305 68.7C201.371 70.9667 200.371 73.2333 200.305 75.5C200.305 77.9 201.971 79.1333 205.305 79.2C206.105 79.2 207.105 79.1333 208.305 79C209.505 78.8667 210.938 78.6 212.605 78.2C214.271 77.7333 216.171 77.0667 218.305 76.2C220.505 75.3333 222.938 74.1333 225.605 72.6C225.671 72.4667 225.871 72.4 226.205 72.4C226.405 72.4 226.538 72.6333 226.605 73.1ZM270.538 72.5C270.804 72.3667 271.038 72.2333 271.238 72.1C271.504 71.9 271.704 72 271.838 72.4C272.038 72.8667 271.871 73.3 271.338 73.7C268.938 75.5 266.504 77.1333 264.038 78.6C261.638 80 259.304 81.1667 257.038 82.1C254.838 83.1 252.804 83.8333 250.938 84.3C249.071 84.7667 247.504 84.9667 246.238 84.9C245.438 84.8333 244.604 84.6333 243.738 84.3C242.938 83.9667 242.204 83.4667 241.538 82.8C240.938 82.1333 240.438 81.2667 240.038 80.2C239.638 79.1333 239.471 77.8333 239.538 76.3C238.738 77.1667 237.771 78.0333 236.638 78.9C235.504 79.7667 234.304 80.5333 233.038 81.2C231.771 81.8667 230.538 82.4 229.338 82.8C228.137 83.2 227.071 83.4 226.137 83.4C225.071 83.4 224.071 83.0333 223.137 82.3C222.204 81.6333 221.737 80.5333 221.737 79C221.671 76.7333 222.671 74.5 224.737 72.3C225.671 71.3 227.104 70.1 229.038 68.7C230.971 67.2333 233.438 65.5333 236.438 63.6C236.838 63.6 237.104 63.7667 237.238 64.1C237.371 64.3667 237.338 64.7 237.138 65.1C236.271 65.6333 235.404 66.2 234.538 66.8C233.671 67.4 232.771 68.0667 231.838 68.8C230.171 70.2 228.971 71.5333 228.237 72.8C227.437 74 226.971 75.1667 226.837 76.3C226.637 78.3 227.271 79.4667 228.737 79.8C229.938 80.0667 231.304 79.7667 232.838 78.9C234.438 77.9667 236.238 76.7 238.238 75.1C238.971 74.5 239.871 73.6 240.938 72.4C242.071 71.2 243.404 69.5667 244.938 67.5C247.271 64.4333 248.971 62.9 250.038 62.9C250.904 62.9 251.371 63.2667 251.438 64C251.438 64.7333 250.171 66.2667 247.638 68.6C245.238 70.8667 244.038 72.8 244.038 74.4C244.038 76.6667 244.404 78.3 245.138 79.3C245.938 80.3 247.004 81.0333 248.338 81.5C250.204 82.1 252.271 82.0333 254.538 81.3C256.871 80.5667 259.438 79.4667 262.238 78C263.371 77.4 264.704 76.6667 266.238 75.8C267.771 74.9333 269.204 73.8333 270.538 72.5ZM291.352 84.2C290.019 84 288.986 83.5667 288.252 82.9C287.519 82.3 286.952 81.6 286.552 80.8C286.152 80 285.886 79.2 285.752 78.4C285.686 77.5333 285.686 76.8333 285.752 76.3C284.952 76.9 283.952 77.6333 282.752 78.5C281.552 79.3 280.319 80.0667 279.052 80.8C277.786 81.5333 276.552 82.1333 275.352 82.6C274.152 83.1333 273.152 83.4 272.352 83.4C271.286 83.3333 270.319 82.9 269.452 82.1C268.586 81.3 268.086 80.2333 267.952 78.9C267.952 76.7 268.919 74.4667 270.852 72.2C271.852 71.2667 273.319 70.1 275.252 68.7C277.186 67.2333 279.652 65.5333 282.652 63.6C283.052 63.6 283.286 63.7333 283.352 64C283.419 64.2 283.419 64.5333 283.352 65C282.486 65.6 281.619 66.2 280.752 66.8C279.886 67.4 278.986 68.0333 278.052 68.7C276.519 70.0333 275.352 71.3333 274.552 72.6C273.819 73.8667 273.386 75.0333 273.252 76.1C273.052 77.1 273.119 77.9333 273.452 78.6C273.786 79.2667 274.286 79.6333 274.952 79.7C275.619 79.7667 276.352 79.6667 277.152 79.4C278.019 79.1333 278.886 78.7667 279.752 78.3C280.619 77.7667 281.452 77.2333 282.252 76.7C283.052 76.1 283.786 75.5333 284.452 75C285.186 74.4667 286.086 73.6 287.152 72.4C288.286 71.1333 289.619 69.5 291.152 67.5C292.286 65.9667 293.286 64.8333 294.152 64.1C295.019 63.3667 295.719 62.9667 296.252 62.9C297.119 62.9 297.586 63.3 297.652 64.1C297.652 64.7667 296.386 66.2667 293.852 68.6C291.452 71 290.252 72.9333 290.252 74.4C290.252 75.1333 290.152 75.9333 289.952 76.8C289.819 77.6 290.019 78.3667 290.552 79.1C291.152 80.0333 291.719 80.5667 292.252 80.7C292.852 80.7667 293.552 80.8 294.352 80.8C295.219 80.8 296.052 80.6 296.852 80.2C297.719 79.8 298.486 79.3333 299.152 78.8C299.886 78.2667 300.519 77.7 301.052 77.1C301.652 76.4333 302.119 75.9 302.452 75.5C302.986 74.9 303.919 73.9333 305.252 72.6C306.586 71.2 308.019 69.5 309.552 67.5C310.686 65.9667 311.686 64.8333 312.552 64.1C313.419 63.3667 314.119 62.9667 314.652 62.9C315.452 62.9 315.886 63.3 315.952 64.1C315.952 64.4333 315.652 64.9667 315.052 65.7C314.519 66.4333 313.586 67.4 312.252 68.6C311.052 69.7333 310.152 70.7 309.552 71.5C309.019 72.3 308.719 73.2667 308.652 74.4C308.452 75.9333 308.619 77.3 309.152 78.5C309.752 79.6333 310.919 80.2667 312.652 80.4C314.319 80.5333 315.819 80.5333 317.152 80.4C318.552 80.2 320.019 79.8 321.552 79.2C323.152 78.6 324.986 77.7667 327.052 76.7C329.119 75.5667 331.719 74.1 334.852 72.3C335.386 72.1 335.752 72.2667 335.952 72.8C336.086 73 336.086 73.2333 335.952 73.5C335.819 73.7 335.719 73.8333 335.652 73.9C333.119 75.5 330.586 76.9667 328.052 78.3C325.519 79.5667 323.086 80.6333 320.752 81.5C318.419 82.4333 316.286 83.1 314.352 83.5C312.419 83.9667 310.852 84.2 309.652 84.2C307.519 84.0667 305.952 83.2 304.952 81.6C304.019 80.0667 303.752 78.3 304.152 76.3C303.552 76.8333 302.819 77.6 301.952 78.6C301.086 79.5333 300.086 80.4333 298.952 81.3C297.886 82.2333 296.686 83 295.352 83.6C294.086 84.2 292.752 84.4 291.352 84.2ZM379.913 72.5C380.179 72.3667 380.413 72.2333 380.613 72.1C380.879 71.9 381.079 72 381.213 72.4C381.413 72.8667 381.246 73.3 380.713 73.7C378.313 75.5 375.879 77.1333 373.413 78.6C371.013 80 368.679 81.1667 366.413 82.1C364.213 83.1 362.179 83.8333 360.313 84.3C358.446 84.7667 356.879 84.9667 355.613 84.9C354.813 84.8333 353.979 84.6333 353.113 84.3C352.313 83.9667 351.579 83.4667 350.913 82.8C350.313 82.1333 349.813 81.2667 349.413 80.2C349.013 79.1333 348.846 77.8333 348.913 76.3C348.113 77.1667 347.146 78.0333 346.013 78.9C344.879 79.7667 343.679 80.5333 342.413 81.2C341.146 81.8667 339.913 82.4 338.713 82.8C337.512 83.2 336.446 83.4 335.512 83.4C334.446 83.4 333.446 83.0333 332.512 82.3C331.579 81.6333 331.112 80.5333 331.112 79C331.046 76.7333 332.046 74.5 334.112 72.3C335.046 71.3 336.479 70.1 338.413 68.7C340.346 67.2333 342.813 65.5333 345.813 63.6C346.213 63.6 346.479 63.7667 346.613 64.1C346.746 64.3667 346.713 64.7 346.513 65.1C345.646 65.6333 344.779 66.2 343.913 66.8C343.046 67.4 342.146 68.0667 341.213 68.8C339.546 70.2 338.346 71.5333 337.612 72.8C336.812 74 336.346 75.1667 336.212 76.3C336.012 78.3 336.646 79.4667 338.112 79.8C339.313 80.0667 340.679 79.7667 342.213 78.9C343.813 77.9667 345.613 76.7 347.613 75.1C348.346 74.5 349.246 73.6 350.313 72.4C351.446 71.2 352.779 69.5667 354.313 67.5C356.646 64.4333 358.346 62.9 359.413 62.9C360.279 62.9 360.746 63.2667 360.813 64C360.813 64.7333 359.546 66.2667 357.013 68.6C354.613 70.8667 353.413 72.8 353.413 74.4C353.413 76.6667 353.779 78.3 354.513 79.3C355.313 80.3 356.379 81.0333 357.713 81.5C359.579 82.1 361.646 82.0333 363.913 81.3C366.246 80.5667 368.813 79.4667 371.613 78C372.746 77.4 374.079 76.6667 375.613 75.8C377.146 74.9333 378.579 73.8333 379.913 72.5ZM414.727 72.3C415.194 71.8333 415.561 71.9333 415.827 72.6C415.827 73.2 415.661 73.5667 415.327 73.7C410.861 76.7667 406.261 79.4333 401.527 81.7C396.861 83.9667 391.994 85.1333 386.927 85.2C385.594 85.2 384.361 85.0333 383.227 84.7C382.027 84.3667 380.994 83.8667 380.127 83.2C379.261 82.5333 378.594 81.7 378.127 80.7C377.661 79.6333 377.494 78.4 377.627 77C377.827 75.2667 378.394 73.4667 379.327 71.6C380.261 69.6667 381.927 67.7333 384.327 65.8C385.527 64.8 386.794 63.9 388.127 63.1C389.461 62.3 390.794 61.6 392.127 61C393.527 60.4 394.861 59.9333 396.127 59.6C397.394 59.2667 398.561 59.0667 399.627 59C401.761 59 402.894 60 403.027 62C403.027 62.9333 402.627 63.8667 401.827 64.8C401.094 65.7333 400.161 66.6 399.027 67.4C397.894 68.1333 396.661 68.7667 395.327 69.3C393.994 69.8333 392.794 70.1333 391.727 70.2C390.994 70.2 390.461 70.1 390.127 69.9C389.861 69.7 389.661 69.4333 389.527 69.1C389.127 68.1667 389.261 67.4667 389.927 67C390.661 66.4667 391.527 66.2 392.527 66.2C392.661 66.2 392.994 66.2667 393.527 66.4C394.061 66.4667 394.794 66.5667 395.727 66.7C396.127 66.7667 396.594 66.6667 397.127 66.4C397.727 66.1333 398.227 65.8 398.627 65.4C399.094 65 399.427 64.5667 399.627 64.1C399.827 63.5667 399.827 63.1 399.627 62.7C399.294 62.2333 398.994 61.9667 398.727 61.9C398.461 61.7667 397.894 61.7 397.027 61.7C395.761 61.7 394.227 62.1 392.427 62.9C390.694 63.7 388.927 64.9 387.127 66.5C383.727 69.7667 382.027 72.6333 382.027 75.1C382.027 77.3667 382.761 79.0667 384.227 80.2C385.761 81.2667 387.927 81.8 390.727 81.8C392.794 81.8 395.294 81.3667 398.227 80.5C401.227 79.5667 404.161 78.4 407.027 77C407.961 76.5333 408.727 76.1 409.327 75.7C409.994 75.3 410.594 74.9333 411.127 74.6C411.661 74.2667 412.194 73.9333 412.727 73.6C413.261 73.2 413.927 72.7667 414.727 72.3ZM430.8 75C432.133 73.6667 433.133 72.3 433.8 70.9C434.533 69.5 434.967 68.2333 435.1 67.1C435.233 65.9 435.1 64.9 434.7 64.1C434.367 63.3 433.8 62.8333 433 62.7C431.6 62.3 430.333 62.7333 429.2 64C428.067 65.2667 427.433 67.0667 427.3 69.4C427.1 71.0667 427.4 72.2667 428.2 73C429.067 73.6667 429.933 74.3333 430.8 75ZM432.8 76.1C433.867 76.4333 435 76.5333 436.2 76.4C437.4 76.2667 438.567 76.0333 439.7 75.7C440.833 75.3 441.9 74.8333 442.9 74.3C443.9 73.7667 444.7 73.2333 445.3 72.7C445.633 72.4333 446.033 72.3333 446.5 72.4C447.033 72.4 447.333 72.5 447.4 72.7C447.6 73.5 447.4 74.1333 446.8 74.6C446.2 75 445.433 75.4333 444.5 75.9C443.167 76.5667 441.333 77.1333 439 77.6C436.667 78 434.1 78.0333 431.3 77.7C429.033 80.0333 426.733 81.7667 424.4 82.9C422.067 84.0333 419.733 84.6333 417.4 84.7C413.667 84.7 411.8 82.8333 411.8 79.1C411.8 77.3667 412.4 75.4 413.6 73.2C414.733 71 416.4 68.4333 418.6 65.5C421.067 62.1667 423.133 59.4667 424.8 57.4C426.533 55.3333 427.933 53.3667 429 51.5C429.867 50.0333 430.633 48.9667 431.3 48.3C432.033 47.5667 432.833 46.9333 433.7 46.4C434.167 46.3333 434.7 46.3667 435.3 46.5C435.9 46.5667 436.267 46.8667 436.4 47.4C436.4 47.7333 436.367 48 436.3 48.2C436.3 48.4 436.033 48.7667 435.5 49.3C435.1 49.6333 434.6 50.1 434 50.7C433.467 51.2333 432.867 51.8667 432.2 52.6C431.533 53.2667 430.9 53.9667 430.3 54.7C429.7 55.3667 429.167 55.9667 428.7 56.5C427.033 58.5 425.433 60.4667 423.9 62.4C422.433 64.2667 421.133 66.0667 420 67.8C418.933 69.5333 418.1 71.1333 417.5 72.6C416.833 74 416.5 75.2 416.5 76.2C416.5 77.4667 417 78.5333 418 79.4C419.067 80.2667 420.233 80.7 421.5 80.7C424.167 80.7 426.8 79.3667 429.4 76.7C428.333 75.9667 427.267 75.0667 426.2 74C425.133 72.8667 424.667 71.3333 424.8 69.4C424.867 68.2 425.233 67 425.9 65.8C426.567 64.6 427.4 63.5 428.4 62.5C429.4 61.5 430.5 60.7 431.7 60.1C432.9 59.5 434.067 59.2333 435.2 59.3C436.667 59.3 437.6 60.2333 438 62.1C438.4 63.9 438.267 65.9333 437.6 68.2C437.267 69.2 436.833 70.2 436.3 71.2C435.767 72.1333 435.233 72.9667 434.7 73.7C434.1 74.5667 433.467 75.3667 432.8 76.1Z" fill="#4F4C18"/>
</svg>
